<svg xmlns="http://www.w3.org/2000/svg" viewBox="0 0 512 512" width="512" height="512">
  <defs>
    <linearGradient id="bg" x1="0%" y1="0%" x2="100%" y2="100%">
      <stop offset="0%" style="stop-color:#6c5ce7"/>
      <stop offset="100%" style="stop-color:#4a9eff"/>
    </linearGradient>
  </defs>
  <rect width="512" height="512" rx="120" fill="url(#bg)"/>
  <!-- Bird silhouette -->
  <g transform="translate(256,260) scale(1)">
    <path d="M0-35 C20-35 40-25 55-10 C70-5 85-5 100-10 C110-5 115 0 115 5 C100 15 85 20 70 20 C75 30 65 40 50 40 C35 40 25 30 20 20 C10 25 0 25 -10 20 C-15 15 -15 10 -10 5 C-20 10 -30 10 -40 5 C-45 0 -45 -5 -40 -10 C-25 -20 -10 -30 0-35Z" fill="#fff" opacity="0.95"/>
  </g>
  <!-- TweetVent text -->
  <text x="256" y="420" text-anchor="middle" font-family="'Inter','Segoe UI',sans-serif" font-size="64" font-weight="800" fill="#fff" letter-spacing="-1">TweetVent</text>
</svg>
